<svg width="128" height="128" viewBox="0 0 128 128" fill="none" xmlns="http://www.w3.org/2000/svg">
  <defs>
    <linearGradient id="bg" x1="0%" y1="0%" x2="100%" y2="100%">
      <stop offset="0%" style="stop-color:#2563EB"/>
      <stop offset="100%" style="stop-color:#1D4ED8"/>
    </linearGradient>
    <linearGradient id="clip" x1="0%" y1="0%" x2="100%" y2="100%">
      <stop offset="0%" style="stop-color:#F59E0B"/>
      <stop offset="100%" style="stop-color:#D97706"/>
    </linearGradient>
  </defs>

  <!-- Main document with shadow effect -->
  <rect x="28" y="20" width="72" height="88" rx="6" fill="white" stroke="#E5E7EB" stroke-width="1"/>

  <!-- Clipboard clip -->
  <rect x="54" y="12" width="20" height="14" rx="2" fill="url(#clip)"/>
  <rect x="57" y="16" width="14" height="6" rx="1" fill="white"/>

  <!-- Large "M" for Markdown -->
  <path d="M44 44 L44 68 L48 68 L48 52 L54 64 L60 64 L66 52 L66 68 L70 68 L70 44 L64 44 L57 58 L50 44 Z" fill="#2563EB" fill-rule="evenodd"/>

  <!-- Down arrow indicating clipping/downloading -->
  <g transform="translate(76, 52)">
    <path d="M8 0 L8 16 M2 10 L8 16 L14 10" stroke="#6B7280" stroke-width="2.5" stroke-linecap="round" stroke-linejoin="round"/>
  </g>

  <!-- Content lines -->
  <rect x="44" y="80" width="20" height="2" rx="1" fill="#D1D5DB"/>
  <rect x="44" y="86" width="32" height="2" rx="1" fill="#D1D5DB"/>
  <rect x="44" y="92" width="24" height="2" rx="1" fill="#D1D5DB"/>

</svg>